<?xml version="1.0" standalone="no"?>
<!DOCTYPE svg PUBLIC "-//W3C//DTD SVG 20010904//EN"
 "http://www.w3.org/TR/2001/REC-SVG-20010904/DTD/svg10.dtd">
<svg version="1.0" xmlns="http://www.w3.org/2000/svg"
 width="182.000000pt" height="182.000000pt" viewBox="0 0 182.000000 182.000000"
 preserveAspectRatio="xMidYMid meet">
<metadata>
Created by potrace 1.14, written by Peter Selinger 2001-2017
</metadata>
<g transform="translate(0.000000,182.000000) scale(0.100000,-0.100000)"
fill="#000000" stroke="none">
<path d="M0 910 l0 -850 910 0 910 0 0 850 0 850 -910 0 -910 0 0 -850z m1105
715 c253 -69 461 -278 531 -535 25 -90 25 -290 0 -380 -57 -209 -210 -394
-399 -484 -97 -46 -173 -66 -287 -73 -369 -23 -699 233 -774 599 -82 400 175
792 579 882 86 19 263 15 350 -9z"/>
<path d="M852 1524 c-38 -26 -20 -78 19 -53 21 13 39 11 39 -6 0 -8 -8 -15
-18 -15 -25 0 -42 -19 -42 -47 0 -13 -5 -32 -12 -42 -16 -26 -3 -53 24 -49 17
2 23 10 24 28 0 35 10 48 49 64 58 24 56 98 -2 125 -33 15 -55 14 -81 -5z"/>
<path d="M684 1466 c-3 -7 -4 -35 -2 -61 3 -53 25 -73 30 -29 4 39 28 43 28 5
0 -21 5 -31 15 -31 10 0 15 10 15 29 0 42 -9 61 -30 61 -10 0 -22 9 -25 20 -7
23 -23 26 -31 6z"/>
<path d="M1017 1463 c-3 -5 -7 -29 -11 -55 -8 -51 8 -74 29 -45 7 10 17 17 23
17 15 0 42 29 42 45 0 32 -69 63 -83 38z m39 -50 c-10 -10 -19 5 -10 18 6 11
8 11 12 0 2 -7 1 -15 -2 -18z"/>
<path d="M600 1402 c-18 -14 -21 -25 -16 -45 7 -31 48 -46 71 -27 23 19 18 33
-10 26 -20 -5 -25 -3 -25 13 0 10 7 22 16 25 8 3 12 10 9 16 -9 14 -20 12 -45
-8z"/>
<path d="M1121 1407 c-13 -16 -26 -77 -17 -77 4 0 22 16 41 35 33 32 34 35 16
45 -25 13 -26 13 -40 -3z"/>
<path d="M500 1400 c0 -10 36 -77 53 -98 21 -26 29 5 10 38 -10 18 -22 41 -28
51 -10 20 -35 26 -35 9z"/>
<path d="M1190 1370 c-25 -25 -25 -42 -2 -63 28 -25 61 -21 72 8 11 30 4 52
-21 65 -24 13 -26 13 -49 -10z"/>
<path d="M464 1355 c-3 -8 -3 -19 1 -25 3 -5 2 -10 -4 -10 -5 0 -14 7 -19 17
-13 22 -42 9 -42 -19 -1 -21 -2 -22 -14 -5 -16 20 -36 23 -36 4 0 -22 60 -99
73 -94 7 2 14 16 17 32 5 25 6 27 19 12 25 -31 41 -20 41 27 0 49 -7 76 -21
76 -5 0 -12 -7 -15 -15z"/>
<path d="M1284 1325 c-3 -8 -3 -18 0 -24 3 -5 1 -11 -6 -13 -7 -3 -9 -12 -5
-22 5 -12 15 -16 34 -14 22 2 29 10 34 38 4 19 5 38 3 42 -9 14 -54 9 -60 -7z"/>
<path d="M800 1308 c0 -10 -4 -18 -10 -18 -5 0 -10 -7 -10 -15 0 -28 -30 -63
-49 -58 -27 7 -60 -14 -67 -42 -5 -20 -11 -24 -29 -19 -13 3 -26 0 -30 -7 -5
-8 -4 -10 4 -5 14 9 51 -2 51 -15 0 -6 -4 -8 -9 -5 -5 3 -12 -1 -15 -9 -4 -12
-2 -13 13 -6 20 11 41 -3 41 -26 0 -33 34 -75 83 -103 l52 -30 -42 0 c-24 0
-66 -9 -95 -20 -48 -18 -53 -18 -61 -3 -5 8 -25 33 -44 54 l-34 37 63 -5 c35
-2 69 -9 76 -15 17 -15 16 6 -3 42 -28 54 -75 67 -157 44 -13 -4 -16 -1 -12
10 3 8 11 14 17 13 6 -1 11 3 12 10 0 20 16 28 26 13 9 -13 10 -12 6 2 -3 9
-1 18 5 20 5 2 -8 4 -30 5 -44 2 -65 -14 -76 -57 -4 -19 -2 -18 9 6 8 17 21
34 30 37 21 9 19 1 -12 -39 -26 -32 -31 -34 -69 -28 -26 4 -44 2 -48 -5 -5 -7
6 -11 33 -11 42 0 62 -14 35 -24 -9 -4 -14 -9 -11 -13 3 -3 -1 -19 -9 -35 -24
-47 -21 -85 11 -118 26 -27 53 -42 41 -22 -3 5 0 44 7 88 l13 79 27 -41 c38
-56 49 -100 31 -115 -19 -16 -18 -46 5 -78 15 -20 18 -35 12 -61 -6 -32 -11
-35 -68 -52 l-61 -18 -7 -46 c-6 -40 -3 -77 11 -126 5 -15 47 -50 146 -119
l38 -27 76 30 c43 16 100 34 128 38 28 5 60 12 72 15 15 5 34 -4 68 -34 26
-23 56 -41 66 -41 11 0 50 12 87 26 38 14 92 30 122 34 61 11 66 14 75 53 l7
29 -24 -26 c-28 -30 -42 -33 -51 -11 -3 8 -10 15 -17 15 -6 0 -8 -7 -5 -16 5
-12 2 -15 -10 -10 -10 4 -25 -1 -35 -10 -10 -9 -25 -14 -34 -10 -10 3 -27 -5
-44 -23 -19 -20 -32 -26 -39 -19 -6 6 -12 6 -16 -1 -10 -16 -36 -13 -36 4 0 8
-9 15 -20 15 -15 0 -20 7 -20 26 0 20 -4 25 -16 20 -17 -7 -36 9 -47 38 -6 15
-4 17 13 13 24 -6 26 6 4 27 -8 9 -12 16 -7 16 15 0 33 -23 33 -42 0 -13 8
-18 25 -18 14 0 25 -4 25 -9 0 -20 33 -41 63 -41 18 0 49 9 70 20 20 11 48 20
61 20 14 0 32 7 41 16 22 23 9 31 -15 9 -13 -11 -25 -15 -37 -10 -26 12 -52 6
-74 -16 -19 -19 -39 -18 -39 1 0 12 100 48 175 64 l62 13 -4 -26 c-3 -23 -2
-24 6 -6 11 23 4 83 -12 103 -6 7 -25 19 -43 27 -41 17 -49 43 -48 155 2 94
19 154 60 208 20 26 29 31 35 21 7 -11 9 -11 9 1 1 8 7 0 15 -19 18 -41 18
-41 0 -41 -14 0 -19 12 -16 33 0 4 -3 7 -9 7 -13 0 -13 -27 0 -35 6 -4 10 -12
9 -18 -1 -7 -1 -34 0 -62 l2 -50 34 37 c41 44 46 86 15 136 -11 17 -17 32 -14
32 4 0 1 6 -5 14 -15 18 0 23 64 22 44 -1 51 -4 72 -35 26 -38 30 -34 8 8 -18
36 -32 41 -106 41 -58 0 -59 1 -59 28 0 21 -2 24 -10 12 -8 -13 -13 -12 -32 7
-24 24 -21 37 6 27 9 -3 13 -11 9 -17 -3 -6 -1 -7 6 -3 22 14 -9 38 -43 33
-18 -2 -43 3 -63 14 -27 15 -31 16 -26 2 5 -12 1 -14 -18 -9 -44 13 -64 27
-81 56 -35 61 -144 98 -197 67 -32 -19 -62 -17 -78 3 -11 13 -12 13 -13 -2z
m108 -80 c7 -7 12 -21 12 -32 1 -19 3 -18 21 7 23 30 68 37 89 12 7 -8 15 -35
18 -60 3 -27 9 -44 16 -42 15 5 31 -31 34 -75 2 -29 -4 -44 -25 -68 -26 -28
-33 -30 -103 -31 -41 -1 -90 4 -108 10 -50 15 -118 57 -141 87 -40 51 -19 100
39 92 26 -4 31 -1 40 28 23 70 75 105 108 72z m-160 -30 c5 -7 13 -23 16 -35
6 -20 4 -23 -17 -23 -14 0 -30 -7 -37 -15 -16 -19 -40 -2 -40 28 0 43 54 74
78 45z m380 -7 c9 -5 25 -12 35 -15 18 -6 24 -46 6 -46 -6 0 -8 -7 -5 -16 9
-23 -2 -54 -20 -54 -13 0 -54 34 -54 45 0 3 10 -1 23 -10 23 -15 37 -12 37 9
0 6 -4 5 -9 -2 -6 -10 -10 -10 -20 2 -11 13 -9 17 13 27 32 15 29 31 -5 35
-21 3 -22 2 -7 -9 15 -12 15 -14 -3 -25 -10 -7 -21 -12 -23 -12 -6 0 1 37 9
49 3 6 -3 14 -12 20 -17 10 -17 10 0 11 9 0 25 -4 35 -9z m103 -37 c4 -10 8
-13 8 -6 1 18 26 9 26 -9 1 -8 6 -13 12 -12 6 1 14 -5 17 -13 5 -13 1 -14 -27
-8 -17 5 -43 8 -57 9 -23 0 -25 4 -22 31 4 36 30 41 43 8z m15 -69 c9 -8 25
-15 37 -16 21 -1 21 -1 -1 -7 -13 -4 -23 -10 -22 -15 0 -4 -18 -30 -39 -57
-22 -28 -45 -66 -52 -85 -14 -39 -21 -42 -39 -20 -7 8 -24 15 -39 15 l-26 0
32 20 c22 13 36 32 44 59 13 43 33 56 84 53 19 -1 25 1 17 6 -7 5 -10 16 -6
25 4 12 -1 20 -17 26 -19 8 -20 10 -6 10 10 1 25 -6 33 -14z m-53 -37 c-2 -5
-10 -8 -18 -8 -10 0 -11 5 -2 25 10 20 13 22 18 7 4 -9 5 -20 2 -24z m-591 25
c-9 -3 -3 -12 18 -24 17 -11 35 -17 40 -14 5 3 11 2 14 -3 2 -4 -8 -9 -24 -10
-16 -1 -31 2 -35 8 -3 5 -18 7 -33 4 -15 -3 -35 1 -46 9 -18 13 -17 14 12 12
21 -1 29 2 25 12 -3 9 3 13 18 12 13 0 18 -3 11 -6z m53 -13 c8 -13 -5 -13
-25 0 -13 8 -13 10 2 10 9 0 20 -4 23 -10z m-165 -75 c0 -13 -4 -26 -9 -30 -6
-3 -8 -18 -6 -34 2 -15 -1 -34 -5 -41 -13 -21 -40 13 -40 51 0 27 2 30 15 19
13 -11 15 -8 15 14 0 14 5 26 11 26 8 0 7 5 -1 15 -11 13 -10 14 4 9 9 -3 16
-17 16 -29z m896 -29 c5 -21 4 -27 -5 -22 -6 4 -17 4 -23 0 -9 -6 -5 -10 11
-14 23 -5 23 -6 7 -23 -19 -18 -41 -13 -32 8 2 7 0 17 -6 23 -7 7 -3 12 12 17
17 5 21 13 17 32 -6 33 10 15 19 -21z m-610 -101 c-32 -30 -50 -58 -58 -90 -7
-25 -15 -45 -18 -45 -3 0 -13 13 -22 29 -13 24 -13 29 -2 24 11 -4 13 2 11 26
-2 17 -7 34 -10 38 -4 3 -7 14 -7 24 0 22 41 37 103 38 l49 1 -46 -45z m234
32 c0 -2 -11 -13 -25 -25 -24 -21 -25 -21 -25 -3 0 11 8 22 18 24 24 7 32 7
32 4z m-105 -37 c17 -33 20 -96 5 -135 -14 -36 -72 -60 -113 -45 -45 15 -67
39 -67 73 0 24 12 43 55 84 65 63 96 69 120 23z m-248 -19 c24 -35 22 -61 -1
-28 -7 9 -18 17 -24 17 -13 0 -26 -36 -17 -50 3 -5 2 -10 -4 -10 -15 0 -33 39
-27 57 5 13 4 14 -9 3 -13 -10 -15 -9 -15 9 0 22 31 42 60 38 8 -1 25 -17 37
-36z m457 24 c19 -20 10 -44 -21 -56 -30 -11 -21 -29 14 -29 19 0 24 -4 19
-16 -3 -9 -6 -22 -6 -29 0 -16 -14 -21 -72 -30 l-44 -7 -10 51 c-13 61 2 96
49 116 41 18 52 18 71 0z m-148 -152 c-2 -3 -14 0 -25 6 -18 10 -19 15 -9 37
l12 25 13 -32 c7 -18 11 -34 9 -36z m-312 41 c9 -3 13 -10 10 -15 -3 -5 0 -9
5 -9 6 0 11 -4 11 -10 0 -17 -14 -10 -33 15 -19 26 -18 29 7 19z m92 -63 c5
-5 42 -26 82 -46 96 -48 95 -53 -9 -70 -20 -3 -64 -17 -98 -30 -81 -33 -103
-32 -148 10 -21 20 -53 45 -70 58 -54 36 -49 40 85 67 102 21 144 24 158 11z
m474 -33 c49 -24 89 -48 90 -54 0 -14 -23 -24 -55 -24 -13 0 -63 -14 -110 -31
-94 -34 -114 -33 -160 6 -127 110 -128 95 10 124 50 10 100 19 113 20 13 1 63
-18 112 -41z m-350 8 c0 -3 -4 -8 -10 -11 -5 -3 -10 -1 -10 4 0 6 5 11 10 11
6 0 10 -2 10 -4z m-373 -101 c18 -11 33 -24 33 -29 0 -5 -7 -3 -15 4 -12 10
-15 10 -15 -2 0 -17 20 -38 37 -38 7 0 10 7 6 17 -5 11 -3 14 6 9 7 -5 11 -17
8 -27 -4 -15 0 -19 24 -19 19 0 29 -5 29 -15 0 -37 75 -46 133 -15 20 11 47
20 60 20 13 0 32 9 42 20 21 23 4 28 -18 5 -10 -10 -26 -12 -51 -8 -30 5 -41
2 -57 -16 -23 -24 -39 -27 -39 -7 0 8 23 23 53 34 72 27 87 31 130 36 21 3 41
7 45 10 4 2 7 -13 7 -33 -1 -53 -44 -94 -59 -56 -7 20 -26 19 -26 -1 0 -8 -5
-12 -11 -9 -5 4 -19 -1 -29 -10 -12 -11 -26 -14 -39 -10 -14 4 -23 1 -27 -9
-3 -9 -12 -16 -19 -16 -7 0 -16 -8 -19 -17 -6 -15 -8 -15 -17 -3 -8 11 -12 12
-16 3 -7 -18 -30 -16 -37 2 -3 8 -12 15 -21 15 -15 0 -19 11 -15 39 1 9 -4 12
-15 7 -9 -3 -23 0 -30 7 -37 33 -50 42 -59 42 -6 0 -13 15 -17 33 -4 19 -2 32
3 32 6 0 4 7 -3 17 -16 18 -8 16 38 -12z"/>
<path d="M856 1202 c-3 -6 3 -12 15 -15 12 -3 19 -1 16 6 -5 15 -24 20 -31 9z"/>
<path d="M965 1200 c-3 -5 -8 -31 -12 -58 -4 -37 -2 -51 11 -61 20 -16 41 -9
56 20 7 12 8 19 2 15 -5 -3 -13 1 -16 10 -5 14 -7 14 -22 -1 -14 -13 -14 -18
-2 -32 11 -14 11 -16 -2 -11 -9 3 -16 20 -18 41 -4 47 22 62 50 28 20 -25 24
-21 8 10 -6 10 -18 19 -28 20 -10 0 -12 3 -4 6 6 2 12 9 12 14 0 12 -27 12
-35 -1z"/>
<path d="M872 1158 c7 -15 15 -23 17 -17 2 6 -4 18 -13 27 -15 15 -15 15 -4
-10z"/>
<path d="M825 1159 c-4 -6 -5 -12 -2 -15 2 -3 7 2 10 11 7 17 1 20 -8 4z"/>
<path d="M843 1120 c-3 -11 -10 -17 -15 -14 -5 3 -4 -3 3 -14 12 -19 13 -19
31 -2 11 10 16 24 12 33 -8 23 -25 21 -31 -3z"/>
<path d="M731 1173 c7 -12 15 -20 18 -17 3 2 -3 12 -13 22 -17 16 -18 16 -5
-5z"/>
<path d="M440 920 c0 -5 5 -10 10 -10 6 0 10 5 10 10 0 6 -4 10 -10 10 -5 0
-10 -4 -10 -10z"/>
<path d="M790 489 c0 -5 5 -7 10 -4 6 3 10 8 10 11 0 2 -4 4 -10 4 -5 0 -10
-5 -10 -11z"/>
<path d="M1370 1285 c-7 -8 -10 -22 -6 -30 3 -9 0 -15 -10 -15 -12 0 -12 -4
-4 -20 6 -11 19 -20 29 -20 23 0 45 25 36 41 -4 6 -1 15 6 20 11 8 10 12 -5
24 -25 19 -30 19 -46 0z"/>
<path d="M315 1029 c-4 -6 -5 -12 -2 -15 2 -3 7 2 10 11 7 17 1 20 -8 4z"/>
<path d="M1387 1027 c3 -5 14 -7 24 -4 10 3 22 1 25 -4 3 -5 10 -9 15 -9 6 0
4 6 -3 13 -14 14 -69 17 -61 4z"/>
<path d="M375 1010 c-3 -5 -2 -10 4 -10 5 0 13 5 16 10 3 6 2 10 -4 10 -5 0
-13 -4 -16 -10z"/>
<path d="M1494 995 c36 -19 47 -19 22 0 -11 8 -27 15 -35 15 -9 0 -3 -7 13
-15z"/>
<path d="M310 990 c-8 -5 -12 -11 -9 -14 3 -3 14 1 25 9 21 16 8 20 -16 5z"/>
<path d="M1143 333 c-18 -7 -16 -40 3 -47 26 -10 41 -6 21 5 -12 7 -16 17 -12
30 4 10 5 19 3 18 -2 0 -9 -3 -15 -6z"/>
<path d="M543 310 c1 -11 7 -20 14 -20 7 0 13 9 13 20 0 11 -6 20 -14 20 -9 0
-14 -9 -13 -20z"/>
<path d="M607 324 c-8 -8 3 -34 14 -34 5 0 9 9 9 20 0 19 -11 26 -23 14z"/>
<path d="M654 310 c0 -11 5 -19 11 -17 5 2 10 10 10 17 0 7 -5 15 -10 17 -6 2
-11 -6 -11 -17z"/>
<path d="M695 320 c-7 -11 2 -30 13 -30 4 0 8 9 8 20 0 21 -11 26 -21 10z"/>
<path d="M744 310 c0 -11 5 -19 11 -17 5 2 10 10 10 17 0 7 -5 15 -10 17 -6 2
-11 -6 -11 -17z"/>
<path d="M787 310 c-3 -13 0 -20 9 -20 8 0 14 9 14 20 0 11 -4 20 -9 20 -5 0
-11 -9 -14 -20z"/>
<path d="M827 310 c3 -11 9 -20 14 -20 5 0 9 9 9 20 0 11 -6 20 -14 20 -9 0
-12 -7 -9 -20z"/>
<path d="M907 310 c3 -11 9 -20 14 -20 5 0 9 9 9 20 0 11 -6 20 -14 20 -9 0
-12 -7 -9 -20z"/>
<path d="M960 309 c0 -15 4 -19 16 -15 9 4 22 2 29 -4 9 -8 13 -4 13 15 0 26
-12 33 -22 13 -5 -10 -7 -10 -12 0 -9 19 -24 14 -24 -9z"/>
<path d="M1040 316 c0 -21 27 -38 50 -31 20 6 29 45 10 45 -5 0 -10 -6 -10
-14 0 -24 -21 -30 -27 -7 -6 23 -23 29 -23 7z"/>
<path d="M1210 310 c0 -12 9 -17 31 -18 23 -1 28 2 20 12 -6 7 -9 15 -7 17 2
2 -7 5 -20 5 -17 1 -24 -3 -24 -16z"/>
</g>
</svg>
