<?xml version="1.0" standalone="no"?>
<!DOCTYPE svg PUBLIC "-//W3C//DTD SVG 20010904//EN"
 "http://www.w3.org/TR/2001/REC-SVG-20010904/DTD/svg10.dtd">
<svg version="1.0" xmlns="http://www.w3.org/2000/svg"
 width="180.000000pt" height="180.000000pt" viewBox="0 0 180.000000 180.000000"
 preserveAspectRatio="xMidYMid meet">
<metadata>
Created by potrace 1.14, written by Peter Selinger 2001-2017
</metadata>
<g transform="translate(0.000000,180.000000) scale(0.100000,-0.100000)"
fill="#000000" stroke="none">
<path d="M1435 1430 c-3 -5 -18 -10 -32 -10 -13 0 -37 -6 -51 -14 -15 -7 -52
-25 -83 -41 -60 -29 -135 -94 -186 -160 -34 -45 -83 -141 -83 -164 0 -9 -7
-25 -15 -35 -12 -15 -15 -51 -15 -152 0 -73 4 -135 9 -139 5 -3 15 -22 22 -43
52 -164 199 -315 349 -358 30 -9 63 -20 72 -25 23 -12 79 -11 98 1 12 8 10 10
-8 10 -13 0 -38 6 -55 14 -18 8 -39 17 -47 20 -112 48 -228 170 -279 291 -67
161 -65 309 4 471 46 105 157 229 240 268 82 38 142 64 160 69 11 2 -6 5 -37
6 -31 0 -60 -3 -63 -9z"/>
<path d="M435 1398 c16 -6 36 -17 43 -25 7 -7 20 -13 28 -13 25 0 159 -142
185 -195 13 -27 30 -56 37 -63 6 -7 12 -21 12 -31 0 -9 4 -21 9 -26 14 -14 32
-175 26 -231 -10 -99 -16 -134 -24 -139 -5 -2 -12 -21 -15 -40 -4 -19 -10 -35
-14 -35 -4 0 -13 -12 -20 -27 -26 -59 -45 -84 -94 -130 -28 -26 -67 -63 -86
-80 -19 -19 -45 -33 -58 -33 -13 0 -24 -4 -24 -10 0 -27 99 5 179 58 115 77
209 191 226 275 4 18 13 51 22 74 18 49 16 261 -4 284 -6 8 -16 32 -22 54 -14
53 -71 142 -126 196 -58 58 -76 71 -149 108 -57 29 -91 41 -120 40 l-41 -1 30
-10z"/>
<path d="M1164 876 c-14 -59 17 -68 131 -41 33 8 92 15 130 16 39 0 95 4 125
9 46 6 34 7 -70 9 -69 1 -145 6 -170 12 -25 5 -66 12 -92 16 -44 5 -47 4 -54
-21z"/>
<path d="M289 513 c0 -15 -2 -56 -5 -90 -6 -63 -6 -63 21 -63 l26 0 -3 87 c-3
75 -6 88 -21 91 -13 3 -17 -3 -18 -25z"/>
<path d="M373 293 c9 -2 23 -2 30 0 6 3 -1 5 -18 5 -16 0 -22 -2 -12 -5z"/>
</g>
</svg>
